<mxfile host="app.diagrams.net" agent="Mozilla/5.0 (Windows NT 10.0; Win64; x64; rv:136.0) Gecko/20100101 Firefox/136.0" version="26.1.1">
  <diagram name="Page-1" id="03018318-947c-dd8e-b7a3-06fadd420f32">
    <mxGraphModel dx="3433" dy="2088" grid="1" gridSize="10" guides="1" tooltips="1" connect="1" arrows="1" fold="1" page="1" pageScale="1" pageWidth="1100" pageHeight="850" background="#ffffff" math="0" shadow="0">
      <root>
        <mxCell id="0" />
        <mxCell id="1" parent="0" />
        <mxCell id="677b7b8949515195-9" value="" style="line;strokeWidth=1;html=1;rounded=0;shadow=0;labelBackgroundColor=none;fillColor=none;fontFamily=Verdana;fontSize=14;fontColor=#000000;align=center;comic=1;" parent="1" vertex="1">
          <mxGeometry x="-20" y="-50" width="1060" height="10" as="geometry" />
        </mxCell>
        <mxCell id="677b7b8949515195-10" value="" style="whiteSpace=wrap;html=1;rounded=0;shadow=0;labelBackgroundColor=none;strokeWidth=1;fillColor=none;fontFamily=Verdana;fontSize=12;align=center;comic=1;" parent="1" vertex="1">
          <mxGeometry y="-110" width="1040" height="50" as="geometry" />
        </mxCell>
        <mxCell id="677b7b8949515195-26" value="FOOTER" style="whiteSpace=wrap;html=1;rounded=0;shadow=0;labelBackgroundColor=none;strokeWidth=1;fillColor=none;fontFamily=Verdana;fontSize=12;align=center;comic=1;" parent="1" vertex="1">
          <mxGeometry x="30" y="640" width="1040" height="180" as="geometry" />
        </mxCell>
        <mxCell id="MiC8FaawFKK_ar2keSqU-3" value="HOME" style="ellipse;whiteSpace=wrap;html=1;" vertex="1" parent="1">
          <mxGeometry x="260" y="-100" width="130" height="30" as="geometry" />
        </mxCell>
        <mxCell id="MiC8FaawFKK_ar2keSqU-4" value="AUTORI" style="ellipse;whiteSpace=wrap;html=1;" vertex="1" parent="1">
          <mxGeometry x="670" y="-100" width="130" height="30" as="geometry" />
        </mxCell>
        <mxCell id="MiC8FaawFKK_ar2keSqU-5" value="CATALOGO" style="ellipse;whiteSpace=wrap;html=1;" vertex="1" parent="1">
          <mxGeometry x="400" y="-100" width="130" height="30" as="geometry" />
        </mxCell>
        <mxCell id="MiC8FaawFKK_ar2keSqU-6" value="LOGIN" style="ellipse;whiteSpace=wrap;html=1;" vertex="1" parent="1">
          <mxGeometry x="540" y="-100" width="130" height="30" as="geometry" />
        </mxCell>
        <mxCell id="MiC8FaawFKK_ar2keSqU-9" value="PROGETTO" style="whiteSpace=wrap;html=1;rounded=0;shadow=0;labelBackgroundColor=none;strokeWidth=1;fillColor=none;fontFamily=Verdana;fontSize=12;align=center;comic=1;" vertex="1" parent="1">
          <mxGeometry x="285" y="-30" width="470" height="120" as="geometry" />
        </mxCell>
        <mxCell id="MiC8FaawFKK_ar2keSqU-10" value="VAI AL CATALOGO!" style="rounded=1;whiteSpace=wrap;html=1;" vertex="1" parent="1">
          <mxGeometry x="400" y="90" width="220" height="30" as="geometry" />
        </mxCell>
        <mxCell id="MiC8FaawFKK_ar2keSqU-11" value="IMG RAT-MAN" style="ellipse;whiteSpace=wrap;html=1;aspect=fixed;" vertex="1" parent="1">
          <mxGeometry x="50" y="370" width="220" height="220" as="geometry" />
        </mxCell>
        <mxCell id="MiC8FaawFKK_ar2keSqU-13" value="STORIA RAT-MAN" style="rounded=1;whiteSpace=wrap;html=1;" vertex="1" parent="1">
          <mxGeometry x="285" y="150" width="520" height="140" as="geometry" />
        </mxCell>
        <mxCell id="MiC8FaawFKK_ar2keSqU-14" value="IMG RAT-MAN" style="ellipse;whiteSpace=wrap;html=1;aspect=fixed;" vertex="1" parent="1">
          <mxGeometry x="40" y="70" width="220" height="220" as="geometry" />
        </mxCell>
        <mxCell id="MiC8FaawFKK_ar2keSqU-15" value="IMG RAT-MAN" style="ellipse;whiteSpace=wrap;html=1;aspect=fixed;" vertex="1" parent="1">
          <mxGeometry x="410" y="360" width="220" height="220" as="geometry" />
        </mxCell>
        <mxCell id="MiC8FaawFKK_ar2keSqU-16" value="IMG RAT-MAN" style="ellipse;whiteSpace=wrap;html=1;aspect=fixed;" vertex="1" parent="1">
          <mxGeometry x="780" y="350" width="220" height="220" as="geometry" />
        </mxCell>
        <mxCell id="MiC8FaawFKK_ar2keSqU-17" value="ALLEATI E AMICI DI RAT-MAN" style="rounded=1;whiteSpace=wrap;html=1;" vertex="1" parent="1">
          <mxGeometry x="285" y="320" width="500" height="30" as="geometry" />
        </mxCell>
        <mxCell id="MiC8FaawFKK_ar2keSqU-18" value="WEB-PAGE" style="swimlane;whiteSpace=wrap;html=1;startSize=60;" vertex="1" parent="1">
          <mxGeometry y="-510" width="1030" height="400" as="geometry" />
        </mxCell>
        <mxCell id="677b7b8949515195-2" value="logo img" style="whiteSpace=wrap;html=1;rounded=0;shadow=0;labelBackgroundColor=none;strokeWidth=1;fontFamily=Verdana;fontSize=28;align=center;comic=1;" parent="MiC8FaawFKK_ar2keSqU-18" vertex="1">
          <mxGeometry x="450" y="170" width="190" height="30" as="geometry" />
        </mxCell>
      </root>
    </mxGraphModel>
  </diagram>
</mxfile>
